<svg width="69" height="68" viewBox="0 0 69 68" fill="none" xmlns="http://www.w3.org/2000/svg">
<path d="M55.3455 29C52.0579 29 50.2214 32.2649 50.9696 34.6909L42.9208 42.7623C42.2406 42.5583 41.243 42.5583 40.5628 42.7623L34.7813 36.9808C35.5522 34.5548 33.7157 31.2673 30.4055 31.2673C27.1179 31.2673 25.2587 34.5321 26.0296 36.9808L15.6909 47.2969C13.2649 46.5487 10 48.3852 10 51.6727C10 54.1667 12.0405 56.2072 14.5345 56.2072C17.8221 56.2072 19.6586 52.9424 18.9104 50.5164L29.2265 40.1776C29.9067 40.3817 30.9043 40.3817 31.5844 40.1776L37.366 45.9592C36.5951 48.3852 38.4316 51.6727 41.7418 51.6727C45.0294 51.6727 46.8885 48.4078 46.1177 45.9592L54.1891 37.9104C56.6151 38.6586 59.88 36.8221 59.88 33.5345C59.88 31.0405 57.8395 29 55.3455 29Z" fill="#19B188"/>
<path d="M61.8018 31.6036L63.933 26.9104L68.6036 24.8018L63.933 22.6933L61.8018 18L59.7159 22.6933L55 24.8018L59.7159 26.9104L61.8018 31.6036Z" fill="#19B188"/>
<path d="M8.66819 36.3364L9.80182 31.8018L14.3364 30.6682L9.80182 29.5345L8.66819 25L7.53455 29.5345L3 30.6682L7.53455 31.8018L8.66819 36.3364Z" fill="#19B188"/>
</svg>
