<svg width="145" height="145" viewBox="0 0 145 145" fill="none" xmlns="http://www.w3.org/2000/svg">
<rect width="144.628" height="144.628" rx="46.281" fill="#19B188"/>
<path d="M79.2081 71.865C79.2081 73.3173 78.7774 74.737 77.9705 75.9446C77.1637 77.1522 76.0168 78.0933 74.6751 78.6491C73.3333 79.2049 71.8569 79.3503 70.4324 79.067C69.008 78.7836 67.6996 78.0843 66.6727 77.0573C65.6457 76.0304 64.9464 74.722 64.663 73.2976C64.3797 71.8731 64.5251 70.3967 65.0809 69.0549C65.6367 67.7132 66.5778 66.5663 67.7854 65.7595C68.993 64.9526 70.4127 64.5219 71.865 64.5219C73.8125 64.5219 75.6802 65.2956 77.0573 66.6727C78.4344 68.0498 79.2081 69.9175 79.2081 71.865ZM95.73 60.8504V82.8796C95.7264 86.2866 94.3713 89.5531 91.9622 91.9622C89.5531 94.3713 86.2866 95.7264 82.8796 95.73H60.8504C57.4434 95.7264 54.1769 94.3713 51.7678 91.9622C49.3587 89.5531 48.0036 86.2866 48 82.8796V60.8504C48.0036 57.4434 49.3587 54.1769 51.7678 51.7678C54.1769 49.3587 57.4434 48.0036 60.8504 48H82.8796C86.2866 48.0036 89.5531 49.3587 91.9622 51.7678C94.3713 54.1769 95.7264 57.4434 95.73 60.8504ZM82.8796 71.865C82.8796 69.6865 82.2336 67.557 81.0233 65.7456C79.813 63.9343 78.0928 62.5225 76.0801 61.6888C74.0675 60.8552 71.8528 60.637 69.7162 61.062C67.5795 61.487 65.6169 62.5361 64.0765 64.0765C62.5361 65.6169 61.487 67.5795 61.062 69.7162C60.637 71.8528 60.8552 74.0675 61.6888 76.0801C62.5225 78.0928 63.9343 79.813 65.7456 81.0233C67.557 82.2336 69.6865 82.8796 71.865 82.8796C74.7853 82.8766 77.5852 81.7151 79.6502 79.6502C81.7151 77.5852 82.8766 74.7853 82.8796 71.865ZM88.3869 58.0967C88.3869 57.5521 88.2254 57.0197 87.9228 56.5669C87.6203 56.114 87.1902 55.7611 86.687 55.5527C86.1839 55.3443 85.6302 55.2897 85.0961 55.396C84.5619 55.5022 84.0712 55.7645 83.6861 56.1496C83.301 56.5347 83.0388 57.0254 82.9325 57.5595C82.8263 58.0937 82.8808 58.6473 83.0892 59.1505C83.2976 59.6537 83.6506 60.0837 84.1034 60.3863C84.5563 60.6889 85.0886 60.8504 85.6333 60.8504C86.3636 60.8504 87.064 60.5603 87.5804 60.0439C88.0968 59.5274 88.3869 58.827 88.3869 58.0967Z" fill="white"/>
</svg>
