<svg width="33" height="32" viewBox="0 0 33 32" fill="none" xmlns="http://www.w3.org/2000/svg">
<path d="M16.5 32C25.3366 32 32.5 24.8366 32.5 16C32.5 7.16344 25.3366 0 16.5 0C7.66344 0 0.5 7.16344 0.5 16C0.5 24.8366 7.66344 32 16.5 32Z" fill="#19B188"/>
<path d="M21.3 8.2002H11.7C10.0333 8.2002 8.69998 9.53352 8.69998 11.2002V20.8002C8.69998 22.4669 10.0333 23.8002 11.7 23.8002H21.3C22.9667 23.8002 24.3 22.4669 24.3 20.8002V11.2002C24.3 9.53352 22.9667 8.2002 21.3 8.2002ZM22.1667 10.0002H22.5V12.6669H19.8333V10.0002H22.1667ZM14.3 14.4002C14.7667 13.7335 15.6333 13.2669 16.5 13.2669C17.3667 13.2669 18.2333 13.7335 18.7 14.4002C19.0333 14.8669 19.2333 15.4002 19.2333 16.0002C19.2333 17.5335 17.9667 18.7335 16.5 18.7335C15.0333 18.7335 13.7667 17.5335 13.7667 16.0002C13.7667 15.4002 13.9667 14.8669 14.3 14.4002ZM22.7667 20.8002C22.7667 21.6002 22.1 22.2669 21.3 22.2669H11.7C10.9 22.2669 10.2333 21.6002 10.2333 20.8002V14.4002H12.5666C12.3666 14.8669 12.2333 15.4669 12.2333 16.0002C12.2333 18.3335 14.1667 20.2669 16.5 20.2669C18.8333 20.2669 20.7667 18.3335 20.7667 16.0002C20.7667 15.4669 20.6333 14.8669 20.4333 14.4002H22.7666L22.7667 20.8002Z" fill="white"/>
</svg>
