<svg width="33" height="32" viewBox="0 0 33 32" fill="none" xmlns="http://www.w3.org/2000/svg">
<path d="M16.5 32C25.3366 32 32.5 24.8366 32.5 16C32.5 7.16344 25.3366 0 16.5 0C7.66344 0 0.5 7.16344 0.5 16C0.5 24.8366 7.66344 32 16.5 32Z" fill="#19B188"/>
<path d="M13.01 23.6H9.695V13.1675H13.01V23.6ZM11.3525 11.705C10.28 11.705 9.5 10.925 9.5 9.8525C9.5 8.78 10.3775 8 11.3525 8C12.425 8 13.205 8.78 13.205 9.8525C13.205 10.925 12.425 11.705 11.3525 11.705ZM25.1 23.6H21.785V17.945C21.785 16.2875 21.1025 15.8 20.1275 15.8C19.1525 15.8 18.1775 16.58 18.1775 18.0425V23.6H14.8625V13.1675H17.9825V14.63C18.275 13.9475 19.445 12.875 21.1025 12.875C22.955 12.875 24.905 13.9475 24.905 17.165V23.6H25.1Z" fill="white"/>
</svg>
