<svg width="145" height="146" viewBox="0 0 145 146" fill="none" xmlns="http://www.w3.org/2000/svg">
<rect y="0.909058" width="144.628" height="144.628" rx="46.281" fill="#19B188"/>
<path d="M54.4954 55.8744L60.7107 49.659C61.2755 49.0942 62.1913 49.0942 62.7561 49.659L70.7586 57.6615C71.3234 58.2263 71.3234 59.1421 70.7586 59.7069L65.5025 64.9629C64.7518 65.7137 64.5656 66.8606 65.0405 67.8103C67.7854 73.3002 72.237 77.7518 77.7269 80.4967C78.6766 80.9716 79.8235 80.7854 80.5743 80.0347L85.8303 74.7786C86.3951 74.2138 87.3109 74.2138 87.8757 74.7786L95.8782 82.7811C96.443 83.346 96.443 84.2617 95.8782 84.8265L89.6628 91.0419C86.6092 94.0955 81.7749 94.439 78.3202 91.848L68.047 84.1431C65.5254 82.2519 63.2853 80.0118 61.3941 77.4902L53.6893 67.2171C51.0982 63.7623 51.4417 58.928 54.4954 55.8744Z" fill="white"/>
</svg>
