<svg width="33" height="32" viewBox="0 0 33 32" fill="none" xmlns="http://www.w3.org/2000/svg">
<path d="M16.5 32C25.3366 32 32.5 24.8366 32.5 16C32.5 7.16344 25.3366 0 16.5 0C7.66344 0 0.5 7.16344 0.5 16C0.5 24.8366 7.66344 32 16.5 32Z" fill="#19B188"/>
<path d="M26.3006 11.4985C25.6149 11.8026 24.8774 12.0082 24.1038 12.1C24.8936 11.6269 25.4997 10.8782 25.7858 9.98459C25.0468 10.423 24.2279 10.741 23.3572 10.9124C22.6595 10.1694 21.6655 9.70508 20.5649 9.70508C18.4532 9.70508 16.7404 11.4178 16.7404 13.5295C16.7404 13.8293 16.7744 14.1211 16.84 14.4011C13.6616 14.2417 10.8433 12.7192 8.95693 10.4047C8.62779 10.9694 8.43898 11.6269 8.43898 12.3276C8.43898 13.6542 9.11465 14.8253 10.1403 15.5109C9.51367 15.4912 8.92356 15.3193 8.40817 15.032C8.40789 15.0483 8.40789 15.0646 8.40789 15.0805C8.40789 16.9336 9.72672 18.4792 11.4759 18.8303C11.1554 18.9181 10.8168 18.9646 10.4686 18.9646C10.2216 18.9646 9.98228 18.9409 9.74897 18.8964C10.2355 20.4155 11.6476 21.5213 13.3216 21.5523C12.0124 22.5783 10.3636 23.1895 8.57132 23.1895C8.26328 23.1895 7.95811 23.1715 7.65948 23.1359C9.3511 24.2214 11.3619 24.8543 13.5215 24.8543C20.5561 24.8543 24.403 19.0268 24.403 13.9725C24.403 13.8068 24.3993 13.6416 24.3919 13.4779C25.1397 12.9388 25.788 12.2655 26.3006 11.4985Z" fill="white"/>
</svg>
