<svg width="33" height="32" viewBox="0 0 33 32" fill="none" xmlns="http://www.w3.org/2000/svg">
<path d="M16.5 32C25.3366 32 32.5 24.8366 32.5 16C32.5 7.16344 25.3366 0 16.5 0C7.66344 0 0.5 7.16344 0.5 16C0.5 24.8366 7.66344 32 16.5 32Z" fill="#19B188"/>
<path d="M16.801 8C21.1089 8 24.601 11.4921 24.601 15.8C24.601 20.1079 21.1089 23.6 16.801 23.6C15.4226 23.6022 14.0684 23.2374 12.8776 22.5431L9.00411 23.6L10.0587 19.725C9.36376 18.5338 8.99868 17.179 9.00099 15.8C9.00099 11.4921 12.493 8 16.801 8ZM14.1427 12.134L13.9867 12.1402C13.8858 12.1464 13.787 12.1729 13.6966 12.2182C13.612 12.2662 13.5347 12.3261 13.4673 12.3961C13.3737 12.4842 13.3206 12.5607 13.2637 12.6348C12.9752 13.0099 12.8198 13.4704 12.8222 13.9436C12.8238 14.3258 12.9236 14.6979 13.0796 15.0457C13.3986 15.7493 13.9236 16.4942 14.6162 17.1845C14.7831 17.3506 14.9469 17.5176 15.1232 17.6728C15.9838 18.4305 17.0094 18.977 18.1184 19.2687L18.5614 19.3365C18.7057 19.3443 18.85 19.3334 18.9951 19.3264C19.2223 19.3146 19.4441 19.2531 19.6449 19.1462C19.747 19.0936 19.8467 19.0363 19.9436 18.9746C19.9436 18.9746 19.9771 18.9528 20.0411 18.9044C20.1464 18.8264 20.2111 18.771 20.2985 18.6798C20.3632 18.6127 20.4194 18.5339 20.4623 18.4442C20.5231 18.3171 20.584 18.0745 20.6089 17.8725C20.6277 17.718 20.6222 17.6338 20.6199 17.5815C20.6167 17.4981 20.5473 17.4115 20.4717 17.3748L20.0177 17.1712C20.0177 17.1712 19.3391 16.8756 18.9241 16.6869C18.8807 16.6679 18.8342 16.6571 18.7869 16.6549C18.7335 16.6494 18.6796 16.6554 18.6287 16.6725C18.5779 16.6896 18.5313 16.7173 18.492 16.7539C18.4881 16.7524 18.4359 16.7968 17.8719 17.4801C17.8396 17.5236 17.795 17.5565 17.7438 17.5745C17.6927 17.5926 17.6374 17.595 17.5849 17.5815C17.5341 17.5679 17.4843 17.5507 17.4359 17.53C17.3392 17.4895 17.3056 17.4739 17.2393 17.4458C16.7917 17.2504 16.3772 16.9865 16.0108 16.6635C15.9126 16.5777 15.8213 16.4841 15.7277 16.3936C15.4208 16.0997 15.1534 15.7672 14.9321 15.4045L14.8861 15.3304C14.853 15.2806 14.8263 15.2269 14.8065 15.1705C14.7769 15.0559 14.8541 14.9638 14.8541 14.9638C14.8541 14.9638 15.0436 14.7564 15.1318 14.644C15.2176 14.5348 15.2901 14.4288 15.3369 14.3531C15.429 14.2049 15.4578 14.0528 15.4095 13.935C15.1911 13.4015 14.9649 12.8703 14.7324 12.343C14.6864 12.2385 14.5499 12.1636 14.4259 12.1488C14.3838 12.1441 14.3416 12.1395 14.2995 12.1363C14.1948 12.1311 14.0898 12.1322 13.9852 12.1395L14.142 12.1332L14.1427 12.134Z" fill="white"/>
</svg>
