<svg width="145" height="146" viewBox="0 0 145 146" fill="none" xmlns="http://www.w3.org/2000/svg">
<rect y="0.909058" width="144.628" height="144.628" rx="46.281" fill="#19B188"/>
<path d="M77.5054 76.809L82.7832 79.4433C82.533 80.6934 81.8569 81.818 80.8702 82.6252C79.8834 83.4324 78.6472 83.8723 77.3723 83.8698C72.9919 83.865 68.7923 82.1227 65.6949 79.0253C62.5975 75.9279 60.8552 71.7283 60.8504 67.3479C60.85 66.0746 61.2909 64.8405 62.0979 63.8557C62.905 62.8708 64.0284 62.196 65.2769 61.9462L67.9112 67.224L65.6693 70.5605C65.5017 70.8118 65.3988 71.1006 65.3696 71.4012C65.3404 71.7018 65.3858 72.005 65.5018 72.2838C66.8152 75.4055 69.2986 77.8889 72.4203 79.2024C72.7 79.3235 73.0055 79.3731 73.3092 79.3467C73.6128 79.3202 73.9051 79.2186 74.1597 79.0509L77.5054 76.809ZM95.73 72.8552C95.7309 76.9754 94.6651 81.0257 92.6362 84.6118C90.6074 88.1979 87.6846 91.1976 84.1525 93.3191C80.6204 95.4405 76.5992 96.6113 72.4803 96.7175C68.3614 96.8237 64.2852 95.8618 60.6484 93.9253L52.835 96.5297C52.188 96.7455 51.4938 96.7768 50.8301 96.6202C50.1664 96.4635 49.5595 96.1252 49.0773 95.643C48.5951 95.1608 48.2567 94.5538 48.1 93.8901C47.9434 93.2264 47.9747 92.5322 48.1905 91.8852L50.795 84.0718C49.0926 80.8712 48.1418 77.3248 48.0147 73.7019C47.8876 70.079 48.5875 66.4747 50.0613 63.1627C51.5351 59.8506 53.7441 56.9179 56.5205 54.587C59.297 52.2561 62.568 50.5884 66.0852 49.7105C69.6025 48.8325 73.2735 48.7674 76.8197 49.52C80.3658 50.2726 83.6939 51.8232 86.5513 54.0541C89.4088 56.285 91.7204 59.1375 93.3108 62.3952C94.9012 65.6529 95.7285 69.2301 95.73 72.8552ZM86.5512 78.3625C86.5514 78.0215 86.4566 77.6871 86.2775 77.3969C86.0983 77.1067 85.8419 76.8721 85.5369 76.7195L78.1938 73.048C77.9048 72.9039 77.5828 72.8387 77.2605 72.8588C76.9382 72.879 76.6269 72.9838 76.358 73.1627L72.9871 75.4115C71.4397 74.5608 70.1663 73.2874 69.3156 71.74L71.5644 68.369C71.7433 68.1002 71.8481 67.7889 71.8683 67.4666C71.8884 67.1443 71.8232 66.8223 71.6791 66.5333L68.0076 59.1902C67.8554 58.8829 67.6202 58.6243 67.3286 58.4438C67.037 58.2634 66.7006 58.1682 66.3577 58.1691C63.9233 58.1691 61.5886 59.1361 59.8673 60.8575C58.1459 62.5788 57.1788 64.9135 57.1788 67.3479C57.1849 72.7017 59.3144 77.8344 63.1001 81.6201C66.8858 85.4058 72.0185 87.5353 77.3723 87.5414C78.5777 87.5414 79.7713 87.3039 80.8849 86.8427C81.9985 86.3814 83.0104 85.7053 83.8627 84.8529C84.7151 84.0006 85.3912 82.9887 85.8525 81.8751C86.3137 80.7615 86.5512 79.5679 86.5512 78.3625Z" fill="white"/>
</svg>
